<?xml version="1.0" encoding="utf-8"?>
<!-- Generator: Adobe Illustrator 16.0.2, SVG Export Plug-In . SVG Version: 6.00 Build 0)  -->
<!DOCTYPE svg PUBLIC "-//W3C//DTD SVG 1.1//EN" "http://www.w3.org/Graphics/SVG/1.1/DTD/svg11.dtd">
<svg version="1.1" id="Capa_1" xmlns="http://www.w3.org/2000/svg" xmlns:xlink="http://www.w3.org/1999/xlink" x="0px" y="0px"
	 width="612px" height="792px" viewBox="0 0 612 792" enable-background="new 0 0 612 792" xml:space="preserve">
<g>
	<path fill="#FFFFFF" d="M146.565,436.274h212.581c7.566,0,13.702-6.134,13.702-13.702v-106.29c0-7.567-6.136-13.702-13.702-13.702
		h-92.587V103.702c0-7.568-6.137-13.702-13.702-13.702H146.566c-7.565,0-13.701,6.134-13.701,13.702v318.87
		C132.863,430.141,138.998,436.274,146.565,436.274z M160.267,117.404h78.886v198.878c0,7.568,6.136,13.702,13.702,13.702h92.588
		v78.887H160.267V117.404z"/>
	<path fill="#FFFFFF" d="M571.725,355.726H465.437c-7.566,0-13.702,6.134-13.702,13.702v92.588h-92.589
		c-7.565,0-13.702,6.134-13.702,13.702v92.588H40.275c-7.566,0-13.702,6.135-13.702,13.702v106.29
		c0,7.567,6.136,13.702,13.702,13.702h531.45c7.566,0,13.702-6.135,13.702-13.702V369.427
		C585.427,361.86,579.293,355.726,571.725,355.726z M53.977,595.711h397.758v78.886H53.977V595.711z M558.023,674.596h-78.884
		v-92.588c0-7.567-6.137-13.702-13.702-13.702h-92.589V489.42h92.589c7.565,0,13.702-6.135,13.702-13.702v-92.588h78.884V674.596z"
		/>
</g>
</svg>
