<?xml version="1.0" encoding="utf-8"?>
<!-- Generator: Adobe Illustrator 16.0.2, SVG Export Plug-In . SVG Version: 6.00 Build 0)  -->
<!DOCTYPE svg PUBLIC "-//W3C//DTD SVG 1.1//EN" "http://www.w3.org/Graphics/SVG/1.1/DTD/svg11.dtd">
<svg version="1.1" id="Capa_1" xmlns="http://www.w3.org/2000/svg" xmlns:xlink="http://www.w3.org/1999/xlink" x="0px" y="0px"
	 width="612px" height="792px" viewBox="0 0 612 792" enable-background="new 0 0 612 792" xml:space="preserve">
<path id="XMLID_564_" fill="#FFFFFF" d="M559.693,362.895c-2.352-2.754-5.791-4.341-9.413-4.341s-7.063,1.587-9.414,4.341
	l-39.006,45.701c-1.912,2.24-2.962,5.09-2.962,8.035v272.993c0,6.836,5.541,12.376,12.376,12.376h78.015
	c6.836,0,12.376-5.54,12.376-12.376V416.631c0-2.945-1.051-5.795-2.964-8.035L559.693,362.895z M576.912,677.248h-53.262V651.09
	h53.262V677.248z M576.912,626.338h-53.262V449.237h53.262V626.338z M576.912,424.484h-53.262v-3.291l26.629-31.2l26.633,31.2
	V424.484z M306,257.39c33.405,0,60.585-27.178,60.585-60.584c0-33.405-27.178-60.583-60.585-60.583
	c-33.406,0-60.584,27.177-60.584,60.583C245.415,230.211,272.594,257.39,306,257.39z M306,160.976
	c19.758,0,35.833,16.073,35.833,35.831S325.759,232.638,306,232.638c-19.758,0-35.832-16.074-35.832-35.832
	S286.242,160.976,306,160.976z M264.863,598.157l23.636-23.636l-23.636-23.636c-4.833-4.834-4.833-12.67,0-17.503
	c4.834-4.832,12.671-4.832,17.503,0l23.636,23.636l23.636-23.636c4.834-4.834,12.669-4.834,17.503,0
	c4.833,4.833,4.833,12.669,0,17.503l-23.636,23.636l23.636,23.636c4.833,4.833,4.833,12.669,0,17.502
	c-2.416,2.416-5.585,3.625-8.752,3.625c-3.168,0-6.334-1.207-8.751-3.625l-23.636-23.636l-23.636,23.636
	c-4.834,4.834-12.669,4.834-17.503,0C260.03,610.826,260.03,602.989,264.863,598.157z M589.288,90H22.712
	c-6.836,0-12.377,5.541-12.377,12.376V668.95c0,6.836,5.541,12.376,12.377,12.376c0.012,0,0.024,0,0.039,0h424.883
	c6.836,0,12.376-5.54,12.376-12.376s-5.54-12.376-12.376-12.376h-34.83V492.469h34.83c6.836,0,12.376-5.541,12.376-12.377
	s-5.54-12.376-12.376-12.376h-34.83V303.61H576.91v32.554c0,6.835,5.541,12.376,12.376,12.376c6.836,0,12.377-5.541,12.377-12.376
	V102.376C601.664,95.541,596.122,90,589.288,90z M199.194,656.574H35.088V492.469h164.105V656.574z M199.194,467.716H35.088V303.61
	h164.105V467.716z M199.194,278.858H35.088V114.752h164.105V278.858z M388.051,656.574H223.946V492.469h164.105V656.574
	L388.051,656.574z M388.051,467.716H223.946V303.61h164.105V467.716L388.051,467.716z M388.051,278.858H223.946V114.752h164.105
	V278.858L388.051,278.858z M576.912,278.858H412.804V114.752H576.91v164.105H576.912z M117.141,635.104
	c33.404,0,60.583-27.177,60.583-60.582c0-33.406-27.179-60.585-60.583-60.585c-33.406,0-60.584,27.179-60.584,60.585
	C56.557,607.927,83.735,635.104,117.141,635.104z M117.141,538.69c19.758,0,35.83,16.074,35.83,35.832
	c0,19.757-16.072,35.83-35.83,35.83s-35.832-16.072-35.832-35.83S97.383,538.69,117.141,538.69z M76.002,409.279l23.636-23.635
	l-23.636-23.636c-4.834-4.834-4.834-12.669,0-17.503s12.669-4.833,17.503,0l23.636,23.636l23.636-23.636
	c4.833-4.832,12.669-4.832,17.503,0c4.833,4.832,4.832,12.669,0,17.503l-23.636,23.636l23.636,23.635
	c4.833,4.834,4.833,12.669,0,17.503c-2.417,2.416-5.585,3.625-8.752,3.625s-6.334-1.209-8.751-3.625l-23.636-23.636l-23.636,23.636
	c-4.834,4.834-12.671,4.834-17.503,0C71.168,421.948,71.168,414.113,76.002,409.279z"/>
</svg>
